<?xml version="1.0" encoding="UTF-8" standalone="no"?>
<!-- Created with Inkscape (http://www.inkscape.org/) -->
<svg
   xmlns:dc="http://purl.org/dc/elements/1.1/"
   xmlns:cc="http://creativecommons.org/ns#"
   xmlns:rdf="http://www.w3.org/1999/02/22-rdf-syntax-ns#"
   xmlns:svg="http://www.w3.org/2000/svg"
   xmlns="http://www.w3.org/2000/svg"
   xmlns:sodipodi="http://sodipodi.sourceforge.net/DTD/sodipodi-0.dtd"
   xmlns:inkscape="http://www.inkscape.org/namespaces/inkscape"
   width="250"
   height="400"
   id="svg2"
   sodipodi:version="0.32"
   inkscape:version="0.46"
   version="1.0"
   sodipodi:docname="Poppy.svg"
   inkscape:output_extension="org.inkscape.output.svg.inkscape">
  <defs
     id="defs4">
    <inkscape:perspective
       sodipodi:type="inkscape:persp3d"
       inkscape:vp_x="0 : 526.18109 : 1"
       inkscape:vp_y="0 : 1000 : 0"
       inkscape:vp_z="744.09448 : 526.18109 : 1"
       inkscape:persp3d-origin="372.04724 : 350.78739 : 1"
       id="perspective10" />
    <inkscape:perspective
       id="perspective2390"
       inkscape:persp3d-origin="372.04724 : 350.78739 : 1"
       inkscape:vp_z="744.09448 : 526.18109 : 1"
       inkscape:vp_y="0 : 1000 : 0"
       inkscape:vp_x="0 : 526.18109 : 1"
       sodipodi:type="inkscape:persp3d" />
  </defs>
  <sodipodi:namedview
     id="base"
     pagecolor="#ffffff"
     bordercolor="#666666"
     borderopacity="1.0"
     gridtolerance="10000"
     guidetolerance="10"
     objecttolerance="10"
     inkscape:pageopacity="0.0"
     inkscape:pageshadow="2"
     inkscape:zoom="1.06"
     inkscape:cx="156.85082"
     inkscape:cy="194.02733"
     inkscape:document-units="px"
     inkscape:current-layer="layer1"
     showgrid="false"
     showborder="false"
     inkscape:showpageshadow="false"
     inkscape:window-width="844"
     inkscape:window-height="667"
     inkscape:window-x="119"
     inkscape:window-y="93" />
  <metadata
     id="metadata7">
    <rdf:RDF>
      <cc:Work
         rdf:about="">
        <dc:format>image/svg+xml</dc:format>
        <dc:type
           rdf:resource="http://purl.org/dc/dcmitype/StillImage" />
      </cc:Work>
    </rdf:RDF>
  </metadata>
  <g
     inkscape:label="Layer 1"
     inkscape:groupmode="layer"
     id="layer1">
    <g
       transform="matrix(2.0291635,0,0,-2.0446239,-435.35488,1038.8064)"
       inkscape:label="poppy"
       id="g2392">
      <g
         transform="scale(1,-1)"
         id="g2394">
        <path
           id="path2396"
           style="fill:#bfdbeb;fill-opacity:1;fill-rule:nonzero;stroke:none"
           d="M 267.36963,-454.71387 C 267.36963,-454.71387 261.5498,-461.18115 268.01611,-466.354 C 274.48242,-471.52686 290.64941,-474.11426 293.88281,-474.76074 C 297.11621,-475.40723 309.40234,-476.70068 313.2832,-472.82031 C 317.16211,-468.94043 328.15625,-463.12061 329.44922,-459.88721 C 330.74219,-456.65381 337.85645,-454.71387 337.20898,-451.48047 C 336.5625,-448.24707 336.5625,-443.07422 331.38965,-439.84033 C 326.2168,-436.60693 330.09668,-440.48682 326.2168,-436.60693 C 322.33594,-432.72705 323.62988,-433.37402 318.45703,-432.08057 C 313.2832,-430.78711 316.5166,-424.96729 302.93652,-426.90723 C 289.35596,-428.84717 268.01611,-452.77393 268.01611,-452.77393" />
        <path
           id="path2398"
           style="fill:none;stroke:#c3e3eb;stroke-width:1;stroke-linecap:butt;stroke-linejoin:miter;stroke-miterlimit:4;stroke-dasharray:none;stroke-opacity:1"
           d="M 267.36963,-454.71387 C 267.36963,-454.71387 261.5498,-461.18115 268.01611,-466.354 C 274.48242,-471.52686 290.64941,-474.11426 293.88281,-474.76074 C 297.11621,-475.40723 309.40234,-476.70068 313.2832,-472.82031 C 317.16211,-468.94043 328.15625,-463.12061 329.44922,-459.88721 C 330.74219,-456.65381 337.85645,-454.71387 337.20898,-451.48047 C 336.5625,-448.24707 336.5625,-443.07422 331.38965,-439.84033 C 326.2168,-436.60693 330.09668,-440.48682 326.2168,-436.60693 C 322.33594,-432.72705 323.62988,-433.37402 318.45703,-432.08057 C 313.2832,-430.78711 316.5166,-424.96729 302.93652,-426.90723 C 289.35596,-428.84717 268.01611,-452.77393 268.01611,-452.77393" />
        <path
           id="path2400"
           style="fill:#8799bd;fill-opacity:1;fill-rule:nonzero;stroke:none"
           d="M 271.24951,-456.65381 C 265.42969,-468.29395 252.49609,-469.58691 252.49609,-469.58691 C 252.49609,-469.58691 242.14893,-472.17383 238.91553,-467.64697 C 235.68262,-463.12061 220.1626,-452.77393 219.51611,-446.30713 C 218.86963,-439.84033 212.40283,-436.60693 216.28271,-431.43408 C 220.1626,-426.26074 224.68945,-423.02686 231.15625,-422.38037 C 237.62256,-421.73389 246.67578,-410.74023 260.90283,-428.84717 C 275.12939,-446.9541 271.24951,-456.65381 271.24951,-456.65381 z" />
        <path
           id="path2402"
           style="fill:none;stroke:#7b8bb2;stroke-width:1;stroke-linecap:butt;stroke-linejoin:miter;stroke-miterlimit:4;stroke-dasharray:none;stroke-opacity:1"
           d="M 271.24951,-456.65381 C 265.42969,-468.29395 252.49609,-469.58691 252.49609,-469.58691 C 252.49609,-469.58691 242.14893,-472.17383 238.91553,-467.64697 C 235.68262,-463.12061 220.1626,-452.77393 219.51611,-446.30713 C 218.86963,-439.84033 212.40283,-436.60693 216.28271,-431.43408 C 220.1626,-426.26074 224.68945,-423.02686 231.15625,-422.38037 C 237.62256,-421.73389 246.67578,-410.74023 260.90283,-428.84717 C 275.12939,-446.9541 271.24951,-456.65381 271.24951,-456.65381 z" />
        <path
           id="path2404"
           style="fill:#a8c2dd;fill-opacity:1;fill-rule:nonzero;stroke:none"
           d="M 267.36963,-456.65381 C 267.36963,-456.65381 264.13623,-456.65381 260.25635,-451.48047 C 256.37598,-446.30713 256.37598,-442.42725 255.72949,-439.84033 C 255.08252,-437.25391 253.78955,-432.08008 255.08252,-427.5542 C 256.37598,-423.02686 258.31592,-422.38037 261.5498,-417.20703 C 264.78271,-412.03418 266.72266,-410.09473 269.30957,-406.86035 C 271.896,-403.62695 275.12939,-398.4541 279.65576,-397.80762 C 284.18262,-397.16016 285.47607,-393.92871 290.64941,-399.10059 C 295.82275,-404.27441 295.17627,-410.09473 298.40967,-415.91406 C 301.64258,-421.73389 302.28906,-422.38086 302.28906,-432.72705 C 302.28906,-443.07422 304.22949,-443.07422 295.17627,-449.54053 C 286.12256,-456.00684 271.896,-458.59424 271.896,-458.59424" />
        <path
           id="path2406"
           style="fill:none;stroke:#a1bcda;stroke-width:1;stroke-linecap:butt;stroke-linejoin:miter;stroke-miterlimit:4;stroke-dasharray:none;stroke-opacity:1"
           d="M 267.36963,-456.65381 C 267.36963,-456.65381 264.13623,-456.65381 260.25635,-451.48047 C 256.37598,-446.30713 256.37598,-442.42725 255.72949,-439.84033 C 255.08252,-437.25391 253.78955,-432.08008 255.08252,-427.5542 C 256.37598,-423.02686 258.31592,-422.38037 261.5498,-417.20703 C 264.78271,-412.03418 266.72266,-410.09473 269.30957,-406.86035 C 271.896,-403.62695 275.12939,-398.4541 279.65576,-397.80762 C 284.18262,-397.16016 285.47607,-393.92871 290.64941,-399.10059 C 295.82275,-404.27441 295.17627,-410.09473 298.40967,-415.91406 C 301.64258,-421.73389 302.28906,-422.38086 302.28906,-432.72705 C 302.28906,-443.07422 304.22949,-443.07422 295.17627,-449.54053 C 286.12256,-456.00684 271.896,-458.59424 271.896,-458.59424" />
        <path
           id="path2408"
           style="fill:#d1e9f2;fill-opacity:1;fill-rule:nonzero;stroke:none"
           d="M 271.896,-459.24072 C 271.896,-459.24072 293.23682,-463.76709 300.34961,-471.52686 C 307.46289,-479.28711 295.17627,-485.75391 293.88281,-490.92725 C 292.58984,-496.10059 291.2959,-496.10059 286.12256,-498.04053 C 280.94971,-499.98096 285.47607,-503.86035 270.60254,-507.09424 C 255.729,-510.32715 262.84277,-487.04688 254.43604,-476.70068 C 246.02979,-466.354 269.95605,-459.24072 269.95605,-459.24072" />
        <path
           id="path2410"
           style="fill:none;stroke:#d4eaf3;stroke-width:1;stroke-linecap:butt;stroke-linejoin:miter;stroke-miterlimit:4;stroke-dasharray:none;stroke-opacity:1"
           d="M 271.896,-459.24072 C 271.896,-459.24072 293.23682,-463.76709 300.34961,-471.52686 C 307.46289,-479.28711 295.17627,-485.75391 293.88281,-490.92725 C 292.58984,-496.10059 291.2959,-496.10059 286.12256,-498.04053 C 280.94971,-499.98096 285.47607,-503.86035 270.60254,-507.09424 C 255.729,-510.32715 262.84277,-487.04688 254.43604,-476.70068 C 246.02979,-466.354 269.95605,-459.24072 269.95605,-459.24072" />
        <path
           id="path2412"
           style="fill:#d1e9f2;fill-opacity:1;fill-rule:nonzero;stroke:none"
           d="M 270.24072,-463.15918 C 269.8335,-463.83789 269.76514,-463.02344 269.93506,-462.27686 C 270.10498,-461.52979 270.51221,-460.85059 271.05566,-461.80127 C 271.48438,-462.55273 271.61719,-463.51563 271.55371,-464.22168 C 271.53564,-464.41797 271.50244,-464.59424 271.45703,-464.74072 C 271.24951,-465.40088 270.77881,-465.45313 270.24072,-463.97461 C 269.1543,-460.98682 268.06787,-458.54248 268.06787,-458.54248 C 266.98145,-458.81396 265.62402,-458.81396 265.62402,-458.81396 C 265.62402,-458.81396 265.35205,-456.64063 265.35205,-456.64063 C 265.35205,-456.64063 265.90967,-454.82861 265.90967,-454.82861 C 265.90967,-454.82861 268.61084,-453.11035 268.61084,-453.11035 C 268.61084,-453.11035 268.33984,-454.73975 268.33984,-454.73975 C 268.33984,-454.73975 269.42627,-453.11035 269.42627,-453.11035 C 269.42627,-453.11035 269.22266,-454.43262 269.22266,-454.43262 C 269.22266,-454.43262 268.88281,-456.64063 268.88281,-456.64063 C 268.88281,-456.64063 263.99414,-453.9248 263.99414,-453.9248 C 263.99414,-453.9248 265.08008,-455.55469 265.08008,-455.55469 C 265.08008,-455.55469 264.53711,-457.18457 264.53711,-457.18457 C 264.53711,-457.18457 265.62402,-459.62842 265.62402,-459.62842 C 265.62402,-459.62842 267.5249,-460.71484 267.5249,-460.71484 C 267.5249,-460.71484 266.70996,-462.61621 266.70996,-462.61621 C 266.70996,-462.61621 269.96875,-460.17236 269.96875,-460.17236 C 269.42627,-459.08545 268.61084,-457.72705 268.61084,-457.72705 C 268.61084,-457.72705 269.06885,-450.40381 269.06885,-450.40381 C 269.06885,-450.40381 269.1543,-449.03613 269.1543,-449.03613 C 269.1543,-449.03613 267.79639,-451.20898 267.79639,-451.20898 C 267.79639,-451.20898 266.70996,-452.56689 266.70996,-452.56689 C 266.70996,-452.56689 270.54102,-451.29004 270.54102,-451.29004 C 270.54102,-451.29004 271.59863,-450.9375 271.59863,-450.9375 C 271.59863,-450.9375 272.12305,-450.71289 272.12305,-450.71289 C 272.12305,-450.71289 273.22852,-451.48047 273.22852,-451.48047 C 273.22852,-451.48047 270.5127,-449.58008 270.5127,-449.58008 C 270.5127,-449.58008 274.85791,-451.75195 274.85791,-451.75195 C 274.85791,-451.75195 272.95654,-455.2832 274.04297,-452.83838 C 275.12939,-450.39453 273.77148,-450.12256 273.77148,-450.12256 C 273.77148,-450.12256 276.16113,-451.31689 276.16113,-451.31689 C 276.16113,-451.31689 276.4873,-451.48047 276.4873,-451.48047 C 276.4873,-451.48047 276.21631,-452.56689 276.21631,-452.56689 C 276.21631,-452.56689 276.75879,-453.65332 276.75879,-453.65332 C 276.75879,-453.65332 277.30273,-451.20898 277.84521,-450.39453 C 278.25293,-449.78369 277.74414,-452.53271 278.03613,-453.37305 C 278.13428,-453.65332 278.3208,-453.72119 278.66016,-453.38184 C 278.91016,-453.13232 279.02197,-453.03809 279.04834,-453.05078 C 279.16602,-453.10254 277.60205,-455.23291 278.93213,-455.01123 C 280.56104,-454.73975 277.84521,-454.46826 279.74658,-455.01123 C 280.22217,-455.14697 280.41211,-455.17822 280.4458,-455.13184 C 280.54688,-454.99219 279.24268,-454.15723 280.01855,-453.38184 C 281.64795,-451.75195 278.1167,-452.56689 279.20313,-451.75195 C 280.29053,-450.9375 280.22217,-455.14697 280.22217,-455.14697 C 280.22217,-455.14697 280.83301,-457.18457 280.83301,-457.18457 C 280.83301,-457.18457 280.01855,-456.64063 280.29053,-458.27051 C 280.56104,-459.90039 281.37646,-458.81396 281.37646,-458.81396 C 281.37646,-458.81396 282.02051,-458.0625 282.02051,-458.0625 C 282.02051,-458.0625 283.00635,-456.9126 283.00635,-456.9126 C 283.00635,-456.9126 282.19141,-454.73975 282.73438,-453.9248 C 283.27734,-453.11035 278.93213,-453.9248 280.83301,-453.11035 C 282.73438,-452.2959 281.91504,-461.53223 281.91504,-461.53223 C 281.91504,-461.53223 282.4624,-461.2583 282.4624,-461.2583 C 282.4624,-461.2583 272.95654,-463.43066 272.95654,-463.43066 C 272.95654,-463.43066 271.41602,-460.88379 271.48438,-462.55273 C 271.55371,-464.22168 277.84521,-460.44336 278.38867,-462.61621 C 278.93213,-464.78906 282.19092,-462.61621 282.19092,-462.61621 C 282.19092,-462.61621 281.37598,-457.18457 282.4624,-459.35693 C 283.54883,-461.52979 274.04297,-465.33203 274.04297,-465.33203" />
        <path
           id="path2414"
           style="fill:none;stroke:#d4eaf3;stroke-width:1;stroke-linecap:butt;stroke-linejoin:miter;stroke-miterlimit:4;stroke-dasharray:none;stroke-opacity:1"
           d="M 270.24072,-463.15918 C 269.8335,-463.83789 269.76514,-463.02344 269.93506,-462.27686 C 270.10498,-461.52979 270.51221,-460.85059 271.05566,-461.80127 C 271.48438,-462.55273 271.61719,-463.51563 271.55371,-464.22168 C 271.53564,-464.41797 271.50244,-464.59424 271.45703,-464.74072 C 271.24951,-465.40088 270.77881,-465.45313 270.24072,-463.97461 C 269.1543,-460.98682 268.06787,-458.54248 268.06787,-458.54248 C 266.98145,-458.81396 265.62402,-458.81396 265.62402,-458.81396 C 265.62402,-458.81396 265.35205,-456.64063 265.35205,-456.64063 C 265.35205,-456.64063 265.90967,-454.82861 265.90967,-454.82861 C 265.90967,-454.82861 268.61084,-453.11035 268.61084,-453.11035 C 268.61084,-453.11035 268.33984,-454.73975 268.33984,-454.73975 C 268.33984,-454.73975 269.42627,-453.11035 269.42627,-453.11035 C 269.42627,-453.11035 269.22266,-454.43262 269.22266,-454.43262 C 269.22266,-454.43262 268.88281,-456.64063 268.88281,-456.64063 C 268.88281,-456.64063 263.99414,-453.9248 263.99414,-453.9248 C 263.99414,-453.9248 265.08008,-455.55469 265.08008,-455.55469 C 265.08008,-455.55469 264.53711,-457.18457 264.53711,-457.18457 C 264.53711,-457.18457 265.62402,-459.62842 265.62402,-459.62842 C 265.62402,-459.62842 267.5249,-460.71484 267.5249,-460.71484 C 267.5249,-460.71484 266.70996,-462.61621 266.70996,-462.61621 C 266.70996,-462.61621 269.96875,-460.17236 269.96875,-460.17236 C 269.42627,-459.08545 268.61084,-457.72705 268.61084,-457.72705 C 268.61084,-457.72705 269.06885,-450.40381 269.06885,-450.40381 C 269.06885,-450.40381 269.1543,-449.03613 269.1543,-449.03613 C 269.1543,-449.03613 267.79639,-451.20898 267.79639,-451.20898 C 267.79639,-451.20898 266.70996,-452.56689 266.70996,-452.56689 C 266.70996,-452.56689 270.54102,-451.29004 270.54102,-451.29004 C 270.54102,-451.29004 271.59863,-450.9375 271.59863,-450.9375 C 271.59863,-450.9375 272.12305,-450.71289 272.12305,-450.71289 C 272.12305,-450.71289 273.22852,-451.48047 273.22852,-451.48047 C 273.22852,-451.48047 270.5127,-449.58008 270.5127,-449.58008 C 270.5127,-449.58008 274.85791,-451.75195 274.85791,-451.75195 C 274.85791,-451.75195 272.95654,-455.2832 274.04297,-452.83838 C 275.12939,-450.39453 273.77148,-450.12256 273.77148,-450.12256 C 273.77148,-450.12256 276.16113,-451.31689 276.16113,-451.31689 C 276.16113,-451.31689 276.4873,-451.48047 276.4873,-451.48047 C 276.4873,-451.48047 276.21631,-452.56689 276.21631,-452.56689 C 276.21631,-452.56689 276.75879,-453.65332 276.75879,-453.65332 C 276.75879,-453.65332 277.30273,-451.20898 277.84521,-450.39453 C 278.25293,-449.78369 277.74414,-452.53271 278.03613,-453.37305 C 278.13428,-453.65332 278.3208,-453.72119 278.66016,-453.38184 C 278.91016,-453.13232 279.02197,-453.03809 279.04834,-453.05078 C 279.16602,-453.10254 277.60205,-455.23291 278.93213,-455.01123 C 280.56104,-454.73975 277.84521,-454.46826 279.74658,-455.01123 C 280.22217,-455.14697 280.41211,-455.17822 280.4458,-455.13184 C 280.54688,-454.99219 279.24268,-454.15723 280.01855,-453.38184 C 281.64795,-451.75195 278.1167,-452.56689 279.20313,-451.75195 C 280.29053,-450.9375 280.22217,-455.14697 280.22217,-455.14697 C 280.22217,-455.14697 280.83301,-457.18457 280.83301,-457.18457 C 280.83301,-457.18457 280.01855,-456.64063 280.29053,-458.27051 C 280.56104,-459.90039 281.37646,-458.81396 281.37646,-458.81396 C 281.37646,-458.81396 282.02051,-458.0625 282.02051,-458.0625 C 282.02051,-458.0625 283.00635,-456.9126 283.00635,-456.9126 C 283.00635,-456.9126 282.19141,-454.73975 282.73438,-453.9248 C 283.27734,-453.11035 278.93213,-453.9248 280.83301,-453.11035 C 282.73438,-452.2959 281.91504,-461.53223 281.91504,-461.53223 C 281.91504,-461.53223 282.4624,-461.2583 282.4624,-461.2583 C 282.4624,-461.2583 272.95654,-463.43066 272.95654,-463.43066 C 272.95654,-463.43066 271.41602,-460.88379 271.48438,-462.55273 C 271.55371,-464.22168 277.84521,-460.44336 278.38867,-462.61621 C 278.93213,-464.78906 282.19092,-462.61621 282.19092,-462.61621 C 282.19092,-462.61621 281.37598,-457.18457 282.4624,-459.35693 C 283.54883,-461.52979 274.04297,-465.33203 274.04297,-465.33203" />
        <path
           id="path2416"
           style="fill:#a8c2dd;fill-opacity:1;fill-rule:nonzero;stroke:none"
           d="M 273.77148,-450.12256 C 273.77148,-448.22168 268.06787,-451.75244 270.5127,-449.58008 C 272.95654,-447.40674 269.96924,-449.58008 272.14209,-447.94971 C 274.31494,-446.32031 274.31494,-449.85059 275.40137,-448.49268 C 276.4873,-447.13477 274.31494,-450.12256 275.67236,-449.30811 C 277.03076,-448.49268 275.67236,-450.39453 276.75879,-450.39453 C 277.84521,-450.39453 277.09521,-450.64844 276.38086,-450.98535 C 275.2207,-451.53418 274.05176,-452.54053 274.58643,-450.9375 C 275.40137,-448.49268 277.80713,-456.79346 279.04834,-453.05078 C 279.51465,-451.646 279.69092,-451.80127 279.75781,-452.37158 C 279.86963,-453.3208 279.67871,-455.41797 280.01855,-453.38184 C 280.56104,-450.12256 281.37695,-456.64063 282.73438,-453.9248 C 284.09229,-451.20898 281.64795,-451.75195 281.64795,-451.75195 C 281.64795,-451.75195 280.29053,-450.9375 280.29053,-450.9375 C 280.29053,-450.9375 277.84521,-450.39453 277.84521,-450.39453 C 277.84521,-450.39453 273.77148,-450.12256 273.77148,-450.12256 z" />
        <path
           id="path2418"
           style="fill:none;stroke:#000000;stroke-width:1;stroke-linecap:butt;stroke-linejoin:miter;stroke-miterlimit:4;stroke-dasharray:none;stroke-opacity:1"
           d="M 273.77148,-450.12256 C 273.77148,-448.22168 268.06787,-451.75244 270.5127,-449.58008 C 272.95654,-447.40674 269.96924,-449.58008 272.14209,-447.94971 C 274.31494,-446.32031 274.31494,-449.85059 275.40137,-448.49268 C 276.4873,-447.13477 274.31494,-450.12256 275.67236,-449.30811 C 277.03076,-448.49268 275.67236,-450.39453 276.75879,-450.39453 C 277.84521,-450.39453 277.09521,-450.64844 276.38086,-450.98535 C 275.2207,-451.53418 274.05176,-452.54053 274.58643,-450.9375 C 275.40137,-448.49268 277.80713,-456.79346 279.04834,-453.05078 C 279.51465,-451.646 279.69092,-451.80127 279.75781,-452.37158 C 279.86963,-453.3208 279.67871,-455.41797 280.01855,-453.38184 C 280.56104,-450.12256 281.37695,-456.64063 282.73438,-453.9248 C 284.09229,-451.20898 281.64795,-451.75195 281.64795,-451.75195 C 281.64795,-451.75195 280.29053,-450.9375 280.29053,-450.9375 C 280.29053,-450.9375 277.84521,-450.39453 277.84521,-450.39453 C 277.84521,-450.39453 273.77148,-450.12256 273.77148,-450.12256 z" />
        <path
           id="path2420"
           style="fill:#8799bd;fill-opacity:1;fill-rule:nonzero;stroke:none"
           d="M 270.54102,-451.29004 C 270.5127,-449.58008 271.05566,-451.20898 269.42627,-451.20898 C 267.79639,-451.20898 268.33984,-450.39453 268.33984,-450.39453 C 268.33984,-450.39453 268.61084,-452.2959 268.61084,-452.2959 C 268.61084,-452.2959 267.5249,-453.38184 267.5249,-453.38184 C 267.5249,-453.38184 265.89502,-454.19678 265.89502,-454.19678 C 265.08008,-452.2959 265.08008,-452.2959 265.08008,-452.2959 C 265.08008,-452.2959 267.79639,-453.65332 266.70996,-452.56689 C 265.62402,-451.48047 262.90771,-453.38232 263.72217,-455.2832 C 264.53711,-457.18457 264.53711,-457.45605 265.62402,-458.81396 C 266.70996,-460.17236 268.06787,-460.71484 269.1543,-462.34424 C 270.24072,-463.97461 271.32715,-463.43066 272.41406,-464.78906 C 273.5,-466.14697 271.05566,-462.88818 270.78369,-459.62842 C 270.5127,-456.36914 267.79639,-463.43066 269.1543,-459.90039 C 270.5127,-456.36914 270.51221,-463.97461 271.87012,-461.52979 C 273.22852,-459.08545 274.31494,-464.78906 274.31494,-461.80127 C 274.31494,-461.40186 276.21631,-464.1543 276.21631,-461.80127 C 276.21631,-459.08545 277.03076,-465.06104 277.57373,-461.80127 C 278.11719,-458.54248 277.84521,-457.72705 277.57373,-459.08545 C 277.30273,-460.44287 275.40137,-459.62842 275.40137,-459.62842 C 275.40137,-459.62842 278.38867,-461.52979 278.38867,-461.52979 C 278.38867,-461.52979 278.93213,-459.90039 278.93213,-459.90039 C 278.93213,-459.90039 279.74658,-460.44287 279.74658,-460.44287 C 279.74658,-460.44287 279.4751,-461.80127 279.4751,-461.80127 C 279.4751,-461.80127 278.38867,-462.61621 277.57373,-461.80127 C 276.75879,-460.98682 276.75879,-463.43066 275.12939,-462.07324 C 273.5,-460.71484 272.41406,-462.61621 271.05566,-461.80127 C 269.69727,-460.98633 270.24072,-463.15918 269.69775,-460.98682 C 269.1543,-458.81396 267.79639,-459.90039 267.79639,-459.90039 C 267.79639,-459.90039 267.79639,-459.90039 268.61084,-461.2583 C 269.42627,-462.61621 266.70996,-462.61621 266.70996,-462.61621" />
        <path
           id="path2422"
           style="fill:none;stroke:#770c40;stroke-width:1;stroke-linecap:butt;stroke-linejoin:miter;stroke-miterlimit:4;stroke-dasharray:none;stroke-opacity:1"
           d="M 270.54102,-451.29004 C 270.5127,-449.58008 271.05566,-451.20898 269.42627,-451.20898 C 267.79639,-451.20898 268.33984,-450.39453 268.33984,-450.39453 C 268.33984,-450.39453 268.61084,-452.2959 268.61084,-452.2959 C 268.61084,-452.2959 267.5249,-453.38184 267.5249,-453.38184 C 267.5249,-453.38184 265.89502,-454.19678 265.89502,-454.19678 C 265.08008,-452.2959 265.08008,-452.2959 265.08008,-452.2959 C 265.08008,-452.2959 267.79639,-453.65332 266.70996,-452.56689 C 265.62402,-451.48047 262.90771,-453.38232 263.72217,-455.2832 C 264.53711,-457.18457 264.53711,-457.45605 265.62402,-458.81396 C 266.70996,-460.17236 268.06787,-460.71484 269.1543,-462.34424 C 270.24072,-463.97461 271.32715,-463.43066 272.41406,-464.78906 C 273.5,-466.14697 271.05566,-462.88818 270.78369,-459.62842 C 270.5127,-456.36914 267.79639,-463.43066 269.1543,-459.90039 C 270.5127,-456.36914 270.51221,-463.97461 271.87012,-461.52979 C 273.22852,-459.08545 274.31494,-464.78906 274.31494,-461.80127 C 274.31494,-461.40186 276.21631,-464.1543 276.21631,-461.80127 C 276.21631,-459.08545 277.03076,-465.06104 277.57373,-461.80127 C 278.11719,-458.54248 277.84521,-457.72705 277.57373,-459.08545 C 277.30273,-460.44287 275.40137,-459.62842 275.40137,-459.62842 C 275.40137,-459.62842 278.38867,-461.52979 278.38867,-461.52979 C 278.38867,-461.52979 278.93213,-459.90039 278.93213,-459.90039 C 278.93213,-459.90039 279.74658,-460.44287 279.74658,-460.44287 C 279.74658,-460.44287 279.4751,-461.80127 279.4751,-461.80127 C 279.4751,-461.80127 278.38867,-462.61621 277.57373,-461.80127 C 276.75879,-460.98682 276.75879,-463.43066 275.12939,-462.07324 C 273.5,-460.71484 272.41406,-462.61621 271.05566,-461.80127 C 269.69727,-460.98633 270.24072,-463.15918 269.69775,-460.98682 C 269.1543,-458.81396 267.79639,-459.90039 267.79639,-459.90039 C 267.79639,-459.90039 267.79639,-459.90039 268.61084,-461.2583 C 269.42627,-462.61621 266.70996,-462.61621 266.70996,-462.61621" />
        <path
           id="path2424"
           style="fill:#a8c2dd;fill-opacity:1;fill-rule:nonzero;stroke:none"
           d="M 263.45068,-460.44287 C 263.45068,-460.44287 263.17871,-461.52979 264.26563,-459.08545 C 265.35205,-456.64063 266.1665,-457.72705 266.1665,-457.72705 C 266.1665,-457.72705 267.25293,-456.64063 267.25293,-456.64063 C 267.25293,-456.64063 268.06787,-458.54248 268.06787,-458.54248 C 268.06787,-458.54248 264.26563,-460.17236 265.62402,-459.62842 C 266.98145,-459.08545 265.08057,-460.98682 266.43848,-460.44287 C 267.79639,-459.90039 267.79639,-459.90039 267.79639,-459.90039 C 267.79639,-459.90039 266.98145,-458.54199 267.79639,-459.90039 C 268.61084,-461.2583 262.36426,-455.82617 262.36426,-455.82617 C 262.36426,-455.82617 262.63623,-455.55469 263.99414,-456.09814 C 265.35205,-456.64063 262.90771,-454.46826 265.08008,-455.55469 C 265.08008,-455.55469 265.35205,-456.64063 265.35205,-456.64063 C 265.35205,-456.64063 266.98145,-457.72705 266.98145,-457.72705 C 266.98145,-457.72705 268.61084,-457.72705 268.61084,-457.72705 C 268.61084,-457.72705 269.42627,-457.72705 269.42627,-457.72705 C 269.42627,-457.72705 270.78369,-459.62842 270.78369,-459.62842 C 270.78369,-459.62842 271.85889,-457.98779 273.5,-459.62842 C 274.58643,-460.71484 273.22852,-458.54248 275.40137,-458.81396 C 277.57373,-459.08545 274.8584,-455.82617 276.21631,-457.45605 C 277.57373,-459.08545 276.75879,-457.18457 278.11719,-456.36914 C 279.4751,-455.55469 274.58594,-457.18457 276.75879,-456.09814 C 278.93213,-455.01123 276.4873,-456.9126 276.4873,-455.01123 C 276.4873,-453.11035 277.84521,-460.44287 279.20313,-457.99902 C 280.56104,-455.55469 281.10449,-458.81396 282.4624,-459.35693 C 283.8208,-459.90039 280.83301,-457.99902 282.4624,-457.72705 C 284.09229,-457.45605 281.37646,-456.36963 283.00635,-456.09814 C 284.63525,-455.82617 281.91943,-458.271 283.00635,-456.09814 C 284.09229,-453.9248 280.83301,-455.2832 282.4624,-453.9248 C 284.09229,-452.56689 280.83301,-452.56689 282.4624,-452.56689 C 284.09229,-452.56689 281.10449,-452.83838 281.64795,-451.75195 C 282.19092,-450.66602 279.20361,-452.56689 280.29053,-450.9375 C 281.37646,-449.30811 278.38867,-452.56738 278.93213,-451.20898 C 279.4751,-449.85059 277.57373,-452.83838 278.11719,-451.20898" />
        <path
           id="path2426"
           style="fill:none;stroke:#000000;stroke-width:1;stroke-linecap:butt;stroke-linejoin:miter;stroke-miterlimit:4;stroke-dasharray:none;stroke-opacity:1"
           d="M 263.45068,-460.44287 C 263.45068,-460.44287 263.17871,-461.52979 264.26563,-459.08545 C 265.35205,-456.64063 266.1665,-457.72705 266.1665,-457.72705 C 266.1665,-457.72705 267.25293,-456.64063 267.25293,-456.64063 C 267.25293,-456.64063 268.06787,-458.54248 268.06787,-458.54248 C 268.06787,-458.54248 264.26563,-460.17236 265.62402,-459.62842 C 266.98145,-459.08545 265.08057,-460.98682 266.43848,-460.44287 C 267.79639,-459.90039 267.79639,-459.90039 267.79639,-459.90039 C 267.79639,-459.90039 266.98145,-458.54199 267.79639,-459.90039 C 268.61084,-461.2583 262.36426,-455.82617 262.36426,-455.82617 C 262.36426,-455.82617 262.63623,-455.55469 263.99414,-456.09814 C 265.35205,-456.64063 262.90771,-454.46826 265.08008,-455.55469 C 265.08008,-455.55469 265.35205,-456.64063 265.35205,-456.64063 C 265.35205,-456.64063 266.98145,-457.72705 266.98145,-457.72705 C 266.98145,-457.72705 268.61084,-457.72705 268.61084,-457.72705 C 268.61084,-457.72705 269.42627,-457.72705 269.42627,-457.72705 C 269.42627,-457.72705 270.78369,-459.62842 270.78369,-459.62842 C 270.78369,-459.62842 271.85889,-457.98779 273.5,-459.62842 C 274.58643,-460.71484 273.22852,-458.54248 275.40137,-458.81396 C 277.57373,-459.08545 274.8584,-455.82617 276.21631,-457.45605 C 277.57373,-459.08545 276.75879,-457.18457 278.11719,-456.36914 C 279.4751,-455.55469 274.58594,-457.18457 276.75879,-456.09814 C 278.93213,-455.01123 276.4873,-456.9126 276.4873,-455.01123 C 276.4873,-453.11035 277.84521,-460.44287 279.20313,-457.99902 C 280.56104,-455.55469 281.10449,-458.81396 282.4624,-459.35693 C 283.8208,-459.90039 280.83301,-457.99902 282.4624,-457.72705 C 284.09229,-457.45605 281.37646,-456.36963 283.00635,-456.09814 C 284.63525,-455.82617 281.91943,-458.271 283.00635,-456.09814 C 284.09229,-453.9248 280.83301,-455.2832 282.4624,-453.9248 C 284.09229,-452.56689 280.83301,-452.56689 282.4624,-452.56689 C 284.09229,-452.56689 281.10449,-452.83838 281.64795,-451.75195 C 282.19092,-450.66602 279.20361,-452.56689 280.29053,-450.9375 C 281.37646,-449.30811 278.38867,-452.56738 278.93213,-451.20898 C 279.4751,-449.85059 277.57373,-452.83838 278.11719,-451.20898" />
        <path
           id="path2428"
           style="fill:#a8c2dd;fill-opacity:1;fill-rule:nonzero;stroke:none"
           d="M 266.98145,-455.2832 C 266.98145,-455.2832 264.26563,-452.56689 264.26563,-452.56689 C 264.26563,-452.56689 266.98145,-455.2832 266.98145,-455.2832 z" />
        <path
           id="path2430"
           style="fill:none;stroke:#000000;stroke-width:1;stroke-linecap:butt;stroke-linejoin:miter;stroke-miterlimit:4;stroke-dasharray:none;stroke-opacity:1"
           d="M 266.98145,-455.2832 C 266.98145,-455.2832 264.26563,-452.56689 264.26563,-452.56689 C 264.26563,-452.56689 266.98145,-455.2832 266.98145,-455.2832 z" />
        <path
           id="path2432"
           style="fill:#a8c2dd;fill-opacity:1;fill-rule:nonzero;stroke:none"
           d="M 268.33984,-454.73975 C 268.88281,-455.82617 266.1665,-450.12256 266.98145,-450.66602 C 267.79639,-451.20898 268.61084,-449.30811 269.42627,-451.20898 C 270.24072,-453.11035 270.24072,-448.76465 270.24072,-448.76465 C 270.24072,-448.76465 270.78369,-450.12256 271.05566,-448.76465 C 271.32715,-447.40674 271.59863,-445.23389 271.59863,-445.23389 C 271.59863,-445.23389 271.87012,-449.03613 271.87012,-449.03613 C 271.87012,-449.03613 272.14209,-452.2959 272.14209,-452.2959 C 273.77148,-450.12256 273.50049,-451.75195 273.77148,-450.12256 C 274.04297,-448.49268 274.31494,-447.13477 274.31494,-447.13477 C 274.31494,-447.13477 274.04297,-451.48096 274.04297,-452.83838 C 274.04297,-454.19678 272.95654,-455.2832 274.85791,-452.83838 C 276.75879,-450.39453 276.75879,-450.39453 276.75879,-450.39453 C 276.75879,-450.39453 275.40088,-451.48096 276.75879,-450.39453 C 278.11719,-449.30811 277.57373,-451.20898 277.57373,-451.20898 C 277.57373,-451.20898 276.4873,-453.11035 276.4873,-453.11035 C 276.4873,-453.11035 279.20313,-452.02393 279.20313,-452.02393 C 279.20313,-452.02393 279.75781,-452.37158 279.75781,-452.37158 C 279.75781,-452.37158 279.60693,-453.63721 279.60693,-453.63721 C 279.60693,-453.63721 279.4751,-454.73975 279.4751,-454.73975 C 279.4751,-454.73975 280.83301,-456.09814 281.91943,-456.09814 C 283.00635,-456.09814 283.00635,-456.09814 283.00635,-456.09814 C 283.00635,-456.09814 281.37646,-456.36963 283.00635,-456.09814 C 284.63525,-455.82617 284.63525,-455.82617 284.63525,-455.82617 C 284.63525,-455.82617 283.00635,-451.20898 283.00635,-451.20898 C 283.00635,-451.20898 282.19092,-453.11035 281.64795,-451.75195 C 281.10498,-450.39453 280.01855,-459.08545 281.37646,-458.81396 C 282.73438,-458.54248 282.73438,-458.54248 282.73438,-458.54248 C 282.73438,-458.54248 281.10498,-450.66602 281.10498,-450.66602 C 281.10498,-450.66602 280.29053,-450.9375 280.29053,-450.9375 C 280.29053,-448.49268 279.4751,-449.85059 279.4751,-449.85059" />
        <path
           id="path2434"
           style="fill:none;stroke:#570b33;stroke-width:1;stroke-linecap:butt;stroke-linejoin:miter;stroke-miterlimit:4;stroke-dasharray:none;stroke-opacity:1"
           d="M 268.33984,-454.73975 C 268.88281,-455.82617 266.1665,-450.12256 266.98145,-450.66602 C 267.79639,-451.20898 268.61084,-449.30811 269.42627,-451.20898 C 270.24072,-453.11035 270.24072,-448.76465 270.24072,-448.76465 C 270.24072,-448.76465 270.78369,-450.12256 271.05566,-448.76465 C 271.32715,-447.40674 271.59863,-445.23389 271.59863,-445.23389 C 271.59863,-445.23389 271.87012,-449.03613 271.87012,-449.03613 C 271.87012,-449.03613 272.14209,-452.2959 272.14209,-452.2959 C 273.77148,-450.12256 273.50049,-451.75195 273.77148,-450.12256 C 274.04297,-448.49268 274.31494,-447.13477 274.31494,-447.13477 C 274.31494,-447.13477 274.04297,-451.48096 274.04297,-452.83838 C 274.04297,-454.19678 272.95654,-455.2832 274.85791,-452.83838 C 276.75879,-450.39453 276.75879,-450.39453 276.75879,-450.39453 C 276.75879,-450.39453 275.40088,-451.48096 276.75879,-450.39453 C 278.11719,-449.30811 277.57373,-451.20898 277.57373,-451.20898 C 277.57373,-451.20898 276.4873,-453.11035 276.4873,-453.11035 C 276.4873,-453.11035 279.20313,-452.02393 279.20313,-452.02393 C 279.20313,-452.02393 279.75781,-452.37158 279.75781,-452.37158 C 279.75781,-452.37158 279.60693,-453.63721 279.60693,-453.63721 C 279.60693,-453.63721 279.4751,-454.73975 279.4751,-454.73975 C 279.4751,-454.73975 280.83301,-456.09814 281.91943,-456.09814 C 283.00635,-456.09814 283.00635,-456.09814 283.00635,-456.09814 C 283.00635,-456.09814 281.37646,-456.36963 283.00635,-456.09814 C 284.63525,-455.82617 284.63525,-455.82617 284.63525,-455.82617 C 284.63525,-455.82617 283.00635,-451.20898 283.00635,-451.20898 C 283.00635,-451.20898 282.19092,-453.11035 281.64795,-451.75195 C 281.10498,-450.39453 280.01855,-459.08545 281.37646,-458.81396 C 282.73438,-458.54248 282.73438,-458.54248 282.73438,-458.54248 C 282.73438,-458.54248 281.10498,-450.66602 281.10498,-450.66602 C 281.10498,-450.66602 280.29053,-450.9375 280.29053,-450.9375 C 280.29053,-448.49268 279.4751,-449.85059 279.4751,-449.85059" />
        <path
           id="path2436"
           style="fill:#a8c2dd;fill-opacity:1;fill-rule:nonzero;stroke:none"
           d="M 278.66016,-449.58008 C 278.66016,-449.58008 277.57373,-455.01123 277.57373,-455.01123" />
        <path
           id="path2438"
           style="fill:none;stroke:#000000;stroke-width:1;stroke-linecap:butt;stroke-linejoin:miter;stroke-miterlimit:4;stroke-dasharray:none;stroke-opacity:1"
           d="M 278.66016,-449.58008 C 278.66016,-449.58008 277.57373,-455.01123 277.57373,-455.01123" />
        <path
           id="path2440"
           style="fill:#a8c2dd;fill-opacity:1;fill-rule:nonzero;stroke:none"
           d="M 271.05566,-458.81396 C 269.97559,-460.5415 271.05566,-456.16553 270.94092,-455.7583 C 270.90283,-455.62256 270.71582,-455.55469 270.24072,-455.55469 C 269.93213,-455.55469 269.70166,-455.48975 269.5332,-455.38232 C 269.03027,-455.05957 269.07324,-454.3501 269.19873,-453.80957 C 269.29053,-453.41553 269.42627,-453.11035 269.42627,-453.11035 C 269.42627,-453.11035 270.10352,-454.28027 270.10352,-454.28027 C 270.10352,-454.28027 272.41406,-458.27051 272.41406,-458.27051 C 272.41406,-458.27051 272.41357,-456.64063 271.05566,-458.81396 z" />
        <path
           id="path2442"
           style="fill:none;stroke:#000000;stroke-width:1;stroke-linecap:butt;stroke-linejoin:miter;stroke-miterlimit:4;stroke-dasharray:none;stroke-opacity:1"
           d="M 271.05566,-458.81396 C 269.97559,-460.5415 271.05566,-456.16553 270.94092,-455.7583 C 270.90283,-455.62256 270.71582,-455.55469 270.24072,-455.55469 C 269.93213,-455.55469 269.70166,-455.48975 269.5332,-455.38232 C 269.03027,-455.05957 269.07324,-454.3501 269.19873,-453.80957 C 269.29053,-453.41553 269.42627,-453.11035 269.42627,-453.11035 C 269.42627,-453.11035 270.10352,-454.28027 270.10352,-454.28027 C 270.10352,-454.28027 272.41406,-458.27051 272.41406,-458.27051 C 272.41406,-458.27051 272.41357,-456.64063 271.05566,-458.81396 z" />
        <path
           id="path2444"
           style="fill:#bfdbeb;fill-opacity:1;fill-rule:nonzero;stroke:none"
           d="M 278.72852,-464.10986 C 278.72852,-464.10986 278.72852,-463.49902 278.11719,-462.68408 C 277.50635,-461.86963 277.30273,-460.85107 278.52441,-461.2583 C 279.74658,-461.66553 278.52441,-461.86963 279.54297,-462.48047 C 280.56104,-463.0918 279.74658,-463.29541 279.74658,-463.29541 C 279.74658,-463.29541 280.96875,-463.0918 280.56104,-462.27686 C 280.15381,-461.46191 280.96875,-462.68408 280.15381,-461.46191 C 279.33936,-460.23926 280.56104,-461.66553 280.35742,-460.23926 C 280.15381,-458.81396 279.74658,-458.40625 280.76514,-459.22119 C 281.78369,-460.03564 281.78369,-460.03564 281.78369,-460.03564 C 281.78369,-460.03564 281.58008,-462.48047 281.58008,-462.48047 C 281.58008,-462.48047 280.96875,-462.88818 281.17285,-463.90625 C 281.37646,-464.9248 281.37646,-464.51709 280.56104,-463.90625 C 279.74658,-463.29541 281.17285,-463.29541 282.19092,-463.29541 C 283.20996,-463.29541 283.41357,-463.70264 282.80225,-462.68408 C 282.19092,-461.66553 282.19092,-461.66553 282.19092,-461.66553 C 282.19092,-461.66553 280.96875,-463.29541 282.19092,-461.66553 C 283.41357,-460.03564 282.59863,-459.22119 283.41357,-460.03564 C 284.22803,-460.85107 285.04297,-461.66553 284.22803,-460.85107 C 283.41357,-460.03564 283.41357,-460.03564 283.41357,-459.22119 C 283.41357,-458.40625 281.9873,-458.61035 283.41357,-458.40625 C 284.83887,-458.20264 284.43164,-457.38818 284.43164,-457.38818 C 284.43164,-457.38818 283.20996,-458.61035 284.83887,-459.22119 C 286.46875,-459.83203 287.69141,-460.23926 286.26514,-459.22119 C 284.83887,-458.20264 284.22803,-458.40625 283.20996,-457.79541 C 282.19092,-457.18457 282.19092,-457.18457 282.19092,-457.18457 C 282.19092,-457.18457 279.9502,-456.98096 282.19092,-457.18457 C 284.43164,-457.38818 283.41357,-456.77734 284.43164,-456.77734 C 285.4502,-456.77734 284.83887,-457.18457 285.4502,-456.77734 C 286.06104,-456.36914 287.48779,-457.5918 286.06104,-456.36914 C 284.63525,-455.14697 284.63525,-455.14697 284.63525,-455.14697 C 284.63525,-455.14697 285.4502,-454.73975 284.63525,-455.14697 C 283.8208,-455.55469 284.02441,-456.36914 283.8208,-455.55469 C 283.61719,-454.73975 282.80225,-455.7583 283.61719,-454.73975 C 284.43164,-453.72119 284.22803,-455.14697 285.04297,-454.53613 C 285.85742,-453.9248 285.85742,-453.9248 285.85742,-453.9248" />
        <path
           id="path2446"
           style="fill:none;stroke:#400824;stroke-width:1;stroke-linecap:butt;stroke-linejoin:miter;stroke-miterlimit:4;stroke-dasharray:none;stroke-opacity:1"
           d="M 278.72852,-464.10986 C 278.72852,-464.10986 278.72852,-463.49902 278.11719,-462.68408 C 277.50635,-461.86963 277.30273,-460.85107 278.52441,-461.2583 C 279.74658,-461.66553 278.52441,-461.86963 279.54297,-462.48047 C 280.56104,-463.0918 279.74658,-463.29541 279.74658,-463.29541 C 279.74658,-463.29541 280.96875,-463.0918 280.56104,-462.27686 C 280.15381,-461.46191 280.96875,-462.68408 280.15381,-461.46191 C 279.33936,-460.23926 280.56104,-461.66553 280.35742,-460.23926 C 280.15381,-458.81396 279.74658,-458.40625 280.76514,-459.22119 C 281.78369,-460.03564 281.78369,-460.03564 281.78369,-460.03564 C 281.78369,-460.03564 281.58008,-462.48047 281.58008,-462.48047 C 281.58008,-462.48047 280.96875,-462.88818 281.17285,-463.90625 C 281.37646,-464.9248 281.37646,-464.51709 280.56104,-463.90625 C 279.74658,-463.29541 281.17285,-463.29541 282.19092,-463.29541 C 283.20996,-463.29541 283.41357,-463.70264 282.80225,-462.68408 C 282.19092,-461.66553 282.19092,-461.66553 282.19092,-461.66553 C 282.19092,-461.66553 280.96875,-463.29541 282.19092,-461.66553 C 283.41357,-460.03564 282.59863,-459.22119 283.41357,-460.03564 C 284.22803,-460.85107 285.04297,-461.66553 284.22803,-460.85107 C 283.41357,-460.03564 283.41357,-460.03564 283.41357,-459.22119 C 283.41357,-458.40625 281.9873,-458.61035 283.41357,-458.40625 C 284.83887,-458.20264 284.43164,-457.38818 284.43164,-457.38818 C 284.43164,-457.38818 283.20996,-458.61035 284.83887,-459.22119 C 286.46875,-459.83203 287.69141,-460.23926 286.26514,-459.22119 C 284.83887,-458.20264 284.22803,-458.40625 283.20996,-457.79541 C 282.19092,-457.18457 282.19092,-457.18457 282.19092,-457.18457 C 282.19092,-457.18457 279.9502,-456.98096 282.19092,-457.18457 C 284.43164,-457.38818 283.41357,-456.77734 284.43164,-456.77734 C 285.4502,-456.77734 284.83887,-457.18457 285.4502,-456.77734 C 286.06104,-456.36914 287.48779,-457.5918 286.06104,-456.36914 C 284.63525,-455.14697 284.63525,-455.14697 284.63525,-455.14697 C 284.63525,-455.14697 285.4502,-454.73975 284.63525,-455.14697 C 283.8208,-455.55469 284.02441,-456.36914 283.8208,-455.55469 C 283.61719,-454.73975 282.80225,-455.7583 283.61719,-454.73975 C 284.43164,-453.72119 284.22803,-455.14697 285.04297,-454.53613 C 285.85742,-453.9248 285.85742,-453.9248 285.85742,-453.9248" />
        <path
           id="path2448"
           style="fill:#a8c2dd;fill-opacity:1;fill-rule:nonzero;stroke:none"
           d="M 264.46924,-451.48047 C 263.6543,-450.0542 263.45068,-449.85059 264.87646,-450.86963 C 266.30273,-451.88818 266.50635,-452.49951 265.69092,-451.07324 C 264.87646,-449.64697 265.28369,-450.2583 264.87646,-449.64697 C 264.46924,-449.03613 264.87646,-450.86963 264.87646,-449.64697 C 264.87646,-448.42529 264.46924,-448.01758 265.28369,-449.03613 C 266.09912,-450.0542 266.91357,-449.44336 266.91357,-449.44336 C 266.91357,-449.44336 267.32129,-450.2583 266.70996,-448.83252 C 266.09912,-447.40674 266.09912,-445.36963 266.91357,-446.7959 C 267.72852,-448.22168 267.5249,-447.20313 267.72852,-448.22168 C 267.93213,-449.23975 269.1543,-449.85059 269.1543,-449.85059 C 269.1543,-449.85059 269.56152,-451.48047 269.35791,-449.23975 C 269.1543,-446.99951 268.54346,-447.61035 268.33984,-446.59229 C 268.13574,-445.57324 269.76514,-445.98047 270.37646,-445.98047 C 270.98779,-445.98047 270.98779,-445.98047 270.78369,-445.16553 C 270.58008,-444.35107 272.20996,-448.62891 272.20996,-448.62891 C 272.20996,-448.62891 273.43213,-449.64697 273.43213,-449.64697 C 273.43213,-449.64697 273.43213,-449.35449 273.68018,-448.521 C 273.72461,-448.37109 273.77734,-448.2041 273.83936,-448.01758 C 274.24658,-446.7959 274.6543,-447.40674 274.85791,-446.38818 C 275.06152,-445.36963 275.87598,-445.57324 275.87598,-445.57324 C 275.87598,-445.57324 275.87598,-446.99951 275.87598,-446.99951 C 275.87598,-446.99951 273.43213,-451.68457 274.04297,-450.2583 C 274.6543,-448.83252 276.69141,-447.20313 276.69141,-447.20313 C 276.69141,-447.20313 277.91357,-446.18457 277.91357,-446.18457 C 277.91357,-446.18457 277.91357,-447.61035 277.91357,-447.61035 C 277.91357,-447.61035 276.4873,-452.0918 277.50635,-451.68457 C 278.52441,-451.27686 278.3208,-453.31396 278.52441,-451.27686 C 278.72852,-449.23975 277.50635,-449.44336 278.3208,-448.22168 C 279.13574,-446.99951 279.9502,-446.38818 279.9502,-446.38818 C 279.33936,-444.55469 278.3208,-443.73975 279.13574,-445.57324 C 279.9502,-447.40674 279.54297,-446.7959 279.9502,-448.01758 C 280.35742,-449.23975 278.52441,-452.2959 279.54297,-451.27686 C 280.56104,-450.2583 280.15381,-450.86963 280.96875,-449.64697 C 281.17285,-449.34229 281.19775,-449.09961 281.14111,-448.90527 C 280.96875,-448.32324 280.05273,-448.17041 280.96875,-448.01758 C 282.19092,-447.81396 280.56104,-451.07324 281.78369,-450.4624 C 282.16797,-450.27002 282.53223,-450.07813 282.85059,-449.90479 C 283.5459,-449.52734 284.02441,-449.23975 284.02441,-449.23975 C 284.02441,-449.23975 281.9873,-452.0918 281.9873,-452.0918 C 281.9873,-452.0918 282.19092,-449.03613 282.39502,-448.22168 C 282.59863,-447.40674 282.59863,-447.61035 282.80225,-446.7959" />
        <path
           id="path2450"
           style="fill:none;stroke:#460b49;stroke-width:1;stroke-linecap:butt;stroke-linejoin:miter;stroke-miterlimit:4;stroke-dasharray:none;stroke-opacity:1"
           d="M 264.46924,-451.48047 C 263.6543,-450.0542 263.45068,-449.85059 264.87646,-450.86963 C 266.30273,-451.88818 266.50635,-452.49951 265.69092,-451.07324 C 264.87646,-449.64697 265.28369,-450.2583 264.87646,-449.64697 C 264.46924,-449.03613 264.87646,-450.86963 264.87646,-449.64697 C 264.87646,-448.42529 264.46924,-448.01758 265.28369,-449.03613 C 266.09912,-450.0542 266.91357,-449.44336 266.91357,-449.44336 C 266.91357,-449.44336 267.32129,-450.2583 266.70996,-448.83252 C 266.09912,-447.40674 266.09912,-445.36963 266.91357,-446.7959 C 267.72852,-448.22168 267.5249,-447.20313 267.72852,-448.22168 C 267.93213,-449.23975 269.1543,-449.85059 269.1543,-449.85059 C 269.1543,-449.85059 269.56152,-451.48047 269.35791,-449.23975 C 269.1543,-446.99951 268.54346,-447.61035 268.33984,-446.59229 C 268.13574,-445.57324 269.76514,-445.98047 270.37646,-445.98047 C 270.98779,-445.98047 270.98779,-445.98047 270.78369,-445.16553 C 270.58008,-444.35107 272.20996,-448.62891 272.20996,-448.62891 C 272.20996,-448.62891 273.43213,-449.64697 273.43213,-449.64697 C 273.43213,-449.64697 273.43213,-449.35449 273.68018,-448.521 C 273.72461,-448.37109 273.77734,-448.2041 273.83936,-448.01758 C 274.24658,-446.7959 274.6543,-447.40674 274.85791,-446.38818 C 275.06152,-445.36963 275.87598,-445.57324 275.87598,-445.57324 C 275.87598,-445.57324 275.87598,-446.99951 275.87598,-446.99951 C 275.87598,-446.99951 273.43213,-451.68457 274.04297,-450.2583 C 274.6543,-448.83252 276.69141,-447.20313 276.69141,-447.20313 C 276.69141,-447.20313 277.91357,-446.18457 277.91357,-446.18457 C 277.91357,-446.18457 277.91357,-447.61035 277.91357,-447.61035 C 277.91357,-447.61035 276.4873,-452.0918 277.50635,-451.68457 C 278.52441,-451.27686 278.3208,-453.31396 278.52441,-451.27686 C 278.72852,-449.23975 277.50635,-449.44336 278.3208,-448.22168 C 279.13574,-446.99951 279.9502,-446.38818 279.9502,-446.38818 C 279.33936,-444.55469 278.3208,-443.73975 279.13574,-445.57324 C 279.9502,-447.40674 279.54297,-446.7959 279.9502,-448.01758 C 280.35742,-449.23975 278.52441,-452.2959 279.54297,-451.27686 C 280.56104,-450.2583 280.15381,-450.86963 280.96875,-449.64697 C 281.17285,-449.34229 281.19775,-449.09961 281.14111,-448.90527 C 280.96875,-448.32324 280.05273,-448.17041 280.96875,-448.01758 C 282.19092,-447.81396 280.56104,-451.07324 281.78369,-450.4624 C 282.16797,-450.27002 282.53223,-450.07813 282.85059,-449.90479 C 283.5459,-449.52734 284.02441,-449.23975 284.02441,-449.23975 C 284.02441,-449.23975 281.9873,-452.0918 281.9873,-452.0918 C 281.9873,-452.0918 282.19092,-449.03613 282.39502,-448.22168 C 282.59863,-447.40674 282.59863,-447.61035 282.80225,-446.7959" />
        <path
           id="path2452"
           style="fill:#fff5a0;fill-opacity:1;fill-rule:nonzero;stroke:none"
           d="M 273.77148,-451.48047 C 271.87012,-450.39453 270.78369,-451.75195 271.05566,-449.85059 C 271.32715,-447.94971 269.42627,-447.40625 271.05566,-446.86328 C 272.68457,-446.32031 272.14209,-445.23389 273.5,-446.32031 C 274.85791,-447.40674 275.67285,-446.04834 275.40137,-448.49268" />
        <path
           id="path2454"
           style="fill:none;stroke:#dfd751;stroke-width:1;stroke-linecap:butt;stroke-linejoin:miter;stroke-miterlimit:4;stroke-dasharray:none;stroke-opacity:1"
           d="M 273.77148,-451.48047 C 271.87012,-450.39453 270.78369,-451.75195 271.05566,-449.85059 C 271.32715,-447.94971 269.42627,-447.40625 271.05566,-446.86328 C 272.68457,-446.32031 272.14209,-445.23389 273.5,-446.32031 C 274.85791,-447.40674 275.67285,-446.04834 275.40137,-448.49268" />
        <path
           id="path2456"
           style="fill:#a1c51b;fill-opacity:1;fill-rule:nonzero;stroke:none"
           d="M 273.22852,-457.38818 C 272.61768,-457.18457 273.22852,-459.01758 272.61768,-457.18457 C 272.00586,-455.35059 271.39502,-455.14697 271.59863,-453.9248 C 271.80225,-452.70313 272.20996,-453.9248 271.80225,-452.0918 C 271.39502,-450.2583 270.78369,-450.2583 271.80225,-450.86963 C 272.82129,-451.48047 272.61768,-452.2959 273.43213,-451.48047 C 274.24658,-450.66602 274.6543,-451.68457 274.24658,-453.11035 C 273.83936,-454.53613 274.04297,-455.7583 273.63574,-456.57324" />
        <path
           id="path2458"
           style="fill:none;stroke:#f8e80b;stroke-width:1;stroke-linecap:butt;stroke-linejoin:miter;stroke-miterlimit:4;stroke-dasharray:none;stroke-opacity:1"
           d="M 273.22852,-457.38818 C 272.61768,-457.18457 273.22852,-459.01758 272.61768,-457.18457 C 272.00586,-455.35059 271.39502,-455.14697 271.59863,-453.9248 C 271.80225,-452.70313 272.20996,-453.9248 271.80225,-452.0918 C 271.39502,-450.2583 270.78369,-450.2583 271.80225,-450.86963 C 272.82129,-451.48047 272.61768,-452.2959 273.43213,-451.48047 C 274.24658,-450.66602 274.6543,-451.68457 274.24658,-453.11035 C 273.83936,-454.53613 274.04297,-455.7583 273.63574,-456.57324" />
        <path
           id="path2460"
           style="fill:#6f8662;fill-opacity:1;fill-rule:nonzero;stroke:none"
           d="M 274.58643,-400.4209 C 274.77637,-393.76465 273.90186,-380.05371 273.54639,-369.63379 C 273.39355,-365.16895 273.33691,-361.30957 273.5,-358.86426 C 274.04297,-350.71777 274.85791,-323.15039 274.85791,-323.15039 C 274.85791,-323.15039 274.85791,-313.37207 274.85791,-313.37207 C 274.85791,-313.37207 277.30273,-312.76074 277.30273,-312.76074 C 277.30273,-312.76074 277.30273,-314.59473 277.30273,-321.31641 C 277.30273,-328.03809 276.69141,-336.59375 276.69141,-336.59375 C 276.69141,-336.59375 275.46875,-347.59277 275.46875,-347.59277 C 275.46875,-347.59277 274.85791,-360.42676 274.85791,-360.42676 C 274.85791,-360.42676 275.46875,-368.9834 275.46875,-368.9834 C 275.46875,-368.9834 275.46875,-379.98242 275.46875,-379.98242 C 275.46875,-379.98242 275.46875,-387.31543 275.46875,-387.31543 C 275.46875,-387.31543 276.69141,-397.7041 276.69141,-397.7041" />
        <path
           id="path2462"
           style="fill:none;stroke:#b8b8b8;stroke-width:1;stroke-linecap:butt;stroke-linejoin:miter;stroke-miterlimit:4;stroke-dasharray:none;stroke-opacity:1"
           d="M 274.58643,-400.4209 C 274.77637,-393.76465 273.90186,-380.05371 273.54639,-369.63379 C 273.39355,-365.16895 273.33691,-361.30957 273.5,-358.86426 C 274.04297,-350.71777 274.85791,-323.15039 274.85791,-323.15039 C 274.85791,-323.15039 274.85791,-313.37207 274.85791,-313.37207 C 274.85791,-313.37207 277.30273,-312.76074 277.30273,-312.76074 C 277.30273,-312.76074 277.30273,-314.59473 277.30273,-321.31641 C 277.30273,-328.03809 276.69141,-336.59375 276.69141,-336.59375 C 276.69141,-336.59375 275.46875,-347.59277 275.46875,-347.59277 C 275.46875,-347.59277 274.85791,-360.42676 274.85791,-360.42676 C 274.85791,-360.42676 275.46875,-368.9834 275.46875,-368.9834 C 275.46875,-368.9834 275.46875,-379.98242 275.46875,-379.98242 C 275.46875,-379.98242 275.46875,-387.31543 275.46875,-387.31543 C 275.46875,-387.31543 276.69141,-397.7041 276.69141,-397.7041" />
      </g>
    </g>
  </g>
</svg>
